<?xml version="1.0" encoding="UTF-8" standalone="no"?>
<!-- Created with Inkscape (http://www.inkscape.org/) -->

<svg
   width="170mm"
   height="140mm"
   viewBox="0 0 170 140"
   version="1.1"
   id="svg1"
   xml:space="preserve"
   inkscape:version="1.3.2 (091e20e, 2023-11-25, custom)"
   sodipodi:docname="logo.svg"
   xmlns:inkscape="http://www.inkscape.org/namespaces/inkscape"
   xmlns:sodipodi="http://sodipodi.sourceforge.net/DTD/sodipodi-0.dtd"
   xmlns:xlink="http://www.w3.org/1999/xlink"
   xmlns="http://www.w3.org/2000/svg"
   xmlns:svg="http://www.w3.org/2000/svg"><sodipodi:namedview
     id="namedview1"
     pagecolor="#ffffff"
     bordercolor="#000000"
     borderopacity="0.25"
     inkscape:showpageshadow="2"
     inkscape:pageopacity="0.0"
     inkscape:pagecheckerboard="0"
     inkscape:deskcolor="#d1d1d1"
     inkscape:document-units="mm"
     inkscape:zoom="0.76167929"
     inkscape:cx="397.14878"
     inkscape:cy="456.22876"
     inkscape:window-width="1920"
     inkscape:window-height="1111"
     inkscape:window-x="-9"
     inkscape:window-y="-9"
     inkscape:window-maximized="1"
     inkscape:current-layer="layer1" /><defs
     id="defs1"><linearGradient
       id="linearGradient3"
       inkscape:collect="always"><stop
         style="stop-color:#0000ff;stop-opacity:1;"
         offset="0"
         id="stop3" /><stop
         style="stop-color:#ff00d7;stop-opacity:0.49803922;"
         offset="0.5"
         id="stop5" /><stop
         style="stop-color:#0086ff;stop-opacity:0;"
         offset="1"
         id="stop4" /></linearGradient><linearGradient
       inkscape:collect="always"
       xlink:href="#linearGradient3"
       id="linearGradient4"
       x1="1.979253"
       y1="69.999998"
       x2="225.33653"
       y2="70.347366"
       gradientUnits="userSpaceOnUse"
       gradientTransform="matrix(0.79497832,0,0,0.79497832,17.426845,14.351517)" /></defs><g
     inkscape:label="Layer 1"
     inkscape:groupmode="layer"
     id="layer1"><path
       style="fill:url(#linearGradient4);fill-opacity:1;stroke:none;stroke-width:0.794978"
       d="M 79.959123,121.51073 C 58.15757,119.42504 39.960116,103.67209 34.736767,82.363203 33.630913,77.851821 33.383429,75.620436 33.376779,70.101116 c -0.0066,-5.443638 0.232596,-7.701003 1.292478,-12.199602 2.948775,-12.515892 10.720471,-23.640405 21.583391,-30.894757 14.475618,-9.666936 32.607676,-11.403002 48.811382,-4.673463 15.97768,6.635668 27.95692,21.67269 30.84888,38.72329 2.53349,14.93707 -1.31438,29.819764 -10.73435,41.518076 -2.11453,2.62596 -6.27601,6.65618 -8.94452,8.66242 -9.26884,6.96847 -20.193854,10.58744 -31.617187,10.47335 -1.578421,-0.0157 -3.674405,-0.10563 -4.65773,-0.1997 z m 11.568591,-7.02928 c 9.801246,-1.54136 18.300726,-5.8403 25.212716,-12.75231 6.95281,-6.952798 11.2599,-15.56381 12.76881,-25.528219 0.47614,-3.144298 0.47294,-9.301437 -0.006,-12.409945 C 127.751,52.431348 122.24946,42.613318 113.5746,35.36539 104.85818,28.082768 92.790172,24.233515 81.641909,25.180064 59.601224,27.051435 42.421083,43.879718 40.214654,65.758889 c -1.450295,14.381269 4.625102,29.24449 15.766022,38.570941 6.938907,5.80882 15.528791,9.47073 24.504381,10.44636 2.586033,0.2811 8.361299,0.12695 11.042745,-0.29474 z m -9.570381,-13.47963 c -8.401148,-1.481493 -15.733367,-4.880749 -19.779546,-9.169908 -2.086742,-2.212059 -2.091026,-2.169361 0.217665,-2.169361 2.224964,0 2.680208,-0.232475 3.047997,-1.55648 0.129573,-0.466477 0.210796,-5.67438 0.211512,-13.56303 7.95e-4,-12.756007 -5.89e-4,-12.80865 -0.45317,-13.540937 -0.594198,-0.961439 -2.022313,-1.61751 -3.090351,-1.419696 -1.93238,0.357899 -4.274065,2.038706 -7.449584,5.347144 -3.10081,3.230601 -6.542226,7.869108 -8.69707,11.722328 -0.411763,0.736301 -0.834937,1.285409 -0.940386,1.220237 -0.33337,-0.206027 -0.202135,-3.907708 0.209198,-5.900775 2.25639,-10.933098 15.09407,-25.270604 28.520552,-31.85261 2.706798,-1.326946 6.75548,-2.875794 6.966276,-2.664998 0.04873,0.04873 -0.283068,0.334559 -0.737318,0.635164 -2.220168,1.469239 -4.390713,4.216207 -5.077352,6.425722 -0.824989,2.654687 -0.458361,6.400068 0.722119,7.377064 0.406027,0.336038 1.40673,0.40951 2.280451,0.167439 l 0.578426,-0.16026 v 16.318918 16.318925 l 1.111014,1.111006 c 1.362473,1.362482 2.79985,1.923752 4.437871,1.732926 1.394936,-0.162502 4.071151,-1.497088 5.756791,-2.870802 l 1.314608,-1.071353 -0.0083,-13.715006 -0.0083,-13.715005 -0.570103,-1.428314 c -0.614621,-1.539603 -1.578556,-2.868401 -2.76801,-3.815578 l -0.746914,-0.594779 1.871824,0.135997 c 1.090392,0.07918 2.466523,0.342803 3.296322,0.63138 l 1.424498,0.495391 0.805265,-0.833193 c 3.398641,-3.516492 8.542722,-6.707694 13.772162,-8.543759 2.43789,-0.855945 5.6842,-1.7357 5.53923,-1.501141 -0.0642,0.103919 -1.33684,1.713154 -2.82806,3.576082 -1.49121,1.862928 -3.54646,4.618768 -4.56724,6.124075 l -1.85595,2.736936 -0.10601,7.082406 c -0.0583,3.895322 -0.0335,10.863601 0.0551,15.485057 0.15785,8.232255 0.1704,8.41254 0.61926,8.890322 1.92671,2.050893 6.69547,0.176525 11.60488,-4.5613 l 2.07702,-2.004434 -0.79075,1.577539 c -1.17686,2.347801 -3.13629,5.529941 -4.79216,7.782504 -2.55004,3.468951 -8.34251,8.90121 -12.27715,11.51366 l -1.093506,0.726053 -3.537804,-3.056691 -3.537813,-3.056689 -3.856138,3.983157 c -4.338247,4.481147 -3.792809,4.191507 -6.871104,3.648667 z m -38.013221,9.72429 C 34.343243,105.12325 27.203856,97.962432 23.363014,90.08323 c -2.64109,-5.418008 -4.043861,-12.329597 -4.33304,-21.34931 -0.137251,-4.280974 0.226714,-12.140551 0.57907,-12.504595 0.120609,-0.124613 0.194179,-0.08502 0.19546,0.105167 0.0066,0.977434 1.80705,3.775567 2.429397,3.775567 0.807051,0 4.44842,-5.120217 9.179247,-12.907157 0.923247,-1.519664 1.629264,-2.621043 1.568927,-2.447515 -2.420334,6.96083 -3.785605,12.798181 -4.57513,19.561435 -0.387205,3.316888 -0.331137,10.50187 0.107249,13.743696 1.539058,11.38122 7.312909,22.804822 16.212897,32.077342 1.127613,1.17482 2.009487,2.13603 1.959719,2.13603 -0.04977,0 -1.28398,-0.6965 -2.742698,-1.54778 z M 137.05511,95.762353 c 2.04569,-5.331296 3.92351,-13.507346 4.54105,-19.771775 0.34984,-3.548847 0.29586,-9.987861 -0.10934,-13.040952 -0.78159,-5.889263 -2.31661,-10.880828 -5.04533,-16.406365 -2.97668,-6.027644 -6.81609,-11.463706 -11.62469,-16.458952 -0.80739,-0.838718 -1.42348,-1.524951 -1.36908,-1.524951 0.28514,0 4.25319,2.37208 6.36151,3.802866 3.53244,2.397265 5.66613,4.157148 8.63785,7.124556 8.60427,8.591783 11.94619,17.212027 12.521,32.297043 0.13998,3.673682 -0.21072,11.754867 -0.54624,12.586804 -0.12733,0.315726 -0.18723,0.35057 -0.1965,0.114318 -0.0251,-0.640538 -1.5215,-3.354848 -2.03496,-3.691283 -0.47667,-0.312323 -0.54469,-0.308078 -0.95554,0.05954 -1.22255,1.093985 -5.21144,6.92128 -8.47781,12.385086 -1.67391,2.800014 -1.98463,3.260839 -1.70192,2.524053 z"
       id="path1" /></g></svg>
