<?xml version="1.0" encoding="UTF-8" standalone="no"?>
<!-- Created with Inkscape (http://www.inkscape.org/) -->

<svg
   width="170mm"
   height="140mm"
   viewBox="0 0 170 140"
   version="1.1"
   id="svg1"
   xml:space="preserve"
   inkscape:version="1.3.2 (091e20e, 2023-11-25, custom)"
   sodipodi:docname="logo.svg"
   xmlns:inkscape="http://www.inkscape.org/namespaces/inkscape"
   xmlns:sodipodi="http://sodipodi.sourceforge.net/DTD/sodipodi-0.dtd"
   xmlns:xlink="http://www.w3.org/1999/xlink"
   xmlns="http://www.w3.org/2000/svg"
   xmlns:svg="http://www.w3.org/2000/svg"><sodipodi:namedview
     id="namedview1"
     pagecolor="#ffffff"
     bordercolor="#000000"
     borderopacity="0.25"
     inkscape:showpageshadow="2"
     inkscape:pageopacity="0.0"
     inkscape:pagecheckerboard="0"
     inkscape:deskcolor="#d1d1d1"
     inkscape:document-units="mm"
     inkscape:zoom="0.76167929"
     inkscape:cx="397.14878"
     inkscape:cy="456.22876"
     inkscape:window-width="1920"
     inkscape:window-height="1111"
     inkscape:window-x="-9"
     inkscape:window-y="-9"
     inkscape:window-maximized="1"
     inkscape:current-layer="layer1" /><defs
     id="defs1"><linearGradient
       id="linearGradient3"
       inkscape:collect="always"><stop
         style="stop-color:#0000ff;stop-opacity:1;"
         offset="0"
         id="stop3" /><stop
         style="stop-color:#ff00d7;stop-opacity:0.49803922;"
         offset="0.5"
         id="stop5" /><stop
         style="stop-color:#0086ff;stop-opacity:0;"
         offset="1"
         id="stop4" /></linearGradient><linearGradient
       inkscape:collect="always"
       xlink:href="#linearGradient3"
       id="linearGradient4"
       x1="1.979253"
       y1="69.999998"
       x2="225.33653"
       y2="70.347366"
       gradientUnits="userSpaceOnUse" /></defs><g
     inkscape:label="Layer 1"
     inkscape:groupmode="layer"
     id="layer1"><path
       style="fill:url(#linearGradient4);fill-opacity:1;stroke:none"
       d="M 78.659099,134.79514 C 51.235014,132.17156 28.34451,112.35599 21.774081,85.551624 c -1.39105,-5.67485 -1.702358,-8.4817 -1.710723,-15.42443 -0.0083,-6.84753 0.292581,-9.68706 1.625802,-15.34583 3.709253,-15.74369 13.485237,-29.737169 27.14966,-38.862389 18.208821,-12.1599998 41.017063,-14.3437898 61.39965,-5.87873 20.09825,8.34698 35.16689,27.261989 38.80468,48.709869 3.18686,18.78928 -1.65336,37.51016 -13.5027,52.225416 -2.65986,3.30319 -7.89457,8.37279 -11.25128,10.89643 -11.65923,8.76561 -25.401767,13.31789 -39.771131,13.17438 -1.98549,-0.0198 -4.62202,-0.13287 -5.85894,-0.2512 z m 14.552084,-8.8421 c 12.328947,-1.93888 23.020407,-7.3465 31.714977,-16.04108 8.74591,-8.7459 14.16378,-19.577656 16.06183,-32.111846 0.59894,-3.9552 0.59491,-11.70024 -0.008,-15.61042 -2.20368,-14.28923 -9.12404,-26.639289 -20.03612,-35.756429 -10.96434,-9.16078 -26.144647,-14.00274 -40.168001,-12.81208 -27.724889,2.35399 -49.335718,23.522219 -52.111176,51.043939 -1.82432,18.09014 5.817897,36.786526 19.832015,48.518236 8.728423,7.30688 19.533603,11.91319 30.823961,13.14043 3.25296,0.35359 10.517644,0.15969 13.890624,-0.37075 z M 81.172639,108.99707 c -10.56777,-1.86357 -19.790938,-6.13948 -24.880611,-11.534796 -2.624904,-2.78254 -2.630293,-2.72883 0.273801,-2.72883 2.798772,0 3.371422,-0.29243 3.834062,-1.95789 0.16299,-0.58678 0.26516,-7.13778 0.26606,-17.06088 10e-4,-16.04573 -7.4e-4,-16.11195 -0.57004,-17.03309 -0.74744,-1.20939 -2.54386,-2.03466 -3.88734,-1.78583 -2.430733,0.4502 -5.376329,2.56448 -9.370802,6.72615 -3.900496,4.06376 -8.229439,9.89852 -10.940009,14.74547 -0.517955,0.92619 -1.050264,1.61691 -1.182908,1.53493 -0.419344,-0.25916 -0.254264,-4.91549 0.26315,-7.42256 2.838304,-13.7527 18.986769,-31.78779 35.875887,-40.067269 3.40487,-1.66916 8.49769,-3.61745 8.76285,-3.35229 0.0613,0.0613 -0.35607,0.42084 -0.92747,0.79897 -2.79274,1.84815 -5.52306,5.30355 -6.38678,8.082889 -1.03775,3.33932 -0.57657,8.05062 0.90835,9.27958 0.51074,0.4227 1.76952,0.51512 2.86857,0.21062 l 0.7276,-0.20159 v 20.5275 20.52751 l 1.39754,1.39753 c 1.71385,1.71386 3.52192,2.41988 5.58238,2.17984 1.754684,-0.20441 5.121084,-1.88318 7.241444,-3.61117 l 1.65364,-1.34765 -0.0105,-17.25205 -0.0105,-17.25205 -0.71713,-1.79667 c -0.77301,-1.93666 -1.98554,-3.60815 -3.48175,-4.7996 l -0.93954,-0.74817 2.35456,0.17107 c 1.3716,0.0996 3.10263,0.43121 4.14643,0.79421 l 1.79187,0.62315 1.01294,-1.04807 c 4.275137,-4.42338 10.745857,-8.43758 17.323957,-10.747159 3.06661,-1.07669 7.15013,-2.18333 6.96777,-1.88828 -0.0808,0.13072 -1.68161,2.15497 -3.5574,4.498339 -1.87579,2.34337 -4.46109,5.80993 -5.74512,7.70345 l -2.33459,3.44278 -0.13335,8.90893 c -0.0733,4.89991 -0.0421,13.66528 0.0693,19.47859 0.19856,10.35532 0.21435,10.5821 0.77896,11.1831 2.42361,2.57981 8.42221,0.22205 14.59774,-5.73764 l 2.61267,-2.52137 -0.99468,1.98438 c -1.48037,2.95329 -3.94513,6.95609 -6.02804,9.78958 -3.20768,4.36358 -10.49401,11.196796 -15.44338,14.482986 l -1.37552,0.9133 -4.450187,-3.845 -4.4502,-3.844996 -4.85062,5.010396 c -5.457064,5.63682 -4.77096,5.27248 -8.643134,4.58965 z M 33.355963,121.22921 C 21.279069,114.1814 12.298463,105.17383 7.467083,95.262614 4.144867,88.447324 2.380327,79.753264 2.01657,68.407404 c -0.172648,-5.38502 0.285182,-15.27155 0.728409,-15.72948 0.151714,-0.15675 0.244257,-0.10695 0.245869,0.13229 0.0083,1.22951 2.27308,4.74927 3.055928,4.74927 1.015186,0 5.59565,-6.4407 11.546538,-16.23586 1.161349,-1.91158 2.049445,-3.297 1.973547,-3.07872 -3.044528,8.756 -4.761897,16.09878 -5.755037,24.60625 -0.487064,4.1723 -0.416537,13.21026 0.134907,17.28814 1.935975,14.31639 9.198879,28.686096 20.394138,40.349956 1.41842,1.4778 2.527725,2.6869 2.465123,2.6869 -0.0626,0 -1.615114,-0.87612 -3.450029,-1.94694 z M 150.47992,102.40636 c 2.57326,-6.706216 4.93536,-16.990836 5.71216,-24.870836 0.44006,-4.46408 0.37216,-12.56369 -0.13753,-16.40416 -0.98316,-7.40808 -2.91406,-13.68695 -6.34651,-20.6375 -3.74435,-7.582149 -8.57393,-14.420149 -14.62265,-20.703649 -1.01561,-1.05502 -1.79058,-1.91823 -1.72215,-1.91823 0.35867,0 5.35007,2.98383 8.00211,4.78361 4.44344,3.01551 7.1274,5.22926 10.86552,8.96195 10.82327,10.807569 15.02706,21.650939 15.75011,40.626319 0.17609,4.62111 -0.26506,14.7864 -0.68711,15.83289 -0.16017,0.39715 -0.23551,0.44098 -0.24717,0.1438 -0.0316,-0.80573 -1.91389,-4.22005 -2.55978,-4.64325 -0.59959,-0.39287 -0.68516,-0.38753 -1.20196,0.0749 -1.53784,1.37612 -6.55545,8.70625 -10.66421,15.57915 -2.1056,3.522126 -2.49646,4.101796 -2.14083,3.174996 z"
       id="path1" /></g></svg>
